<svg width="800" height="800" viewBox="0 0 800 800" fill="none" xmlns="http://www.w3.org/2000/svg">
<path d="M400 800C620.914 800 800 620.914 800 400C800 179.086 620.914 0 400 0C179.086 0 0 179.086 0 400C0 620.914 179.086 800 400 800Z" fill="#F0F0F0"/>
<path d="M400 573.913C496.05 573.913 573.913 496.049 573.913 400C573.913 303.951 496.05 226.088 400 226.088C303.951 226.088 226.088 303.951 226.088 400C226.088 496.049 303.951 573.913 400 573.913Z" fill="#D80027"/>
<path d="M597.191 217.042C592.976 214.477 561.283 195.173 561.283 195.173C561.283 195.173 584.189 129.668 582.192 120.59C580.23 111.524 570.505 108 570.505 108L531.909 179.237L492.243 161.997L492.008 135.98L479.886 125.207C479.886 125.207 476.351 154.904 471.3 162.097C466.292 169.279 446.442 182.739 446.442 182.739L456.903 193.333L483.957 178.758L517.312 201.853L475.872 271.172C475.872 271.172 484.224 281.465 492.443 276.982C500.651 272.499 540.864 220.811 540.864 220.811C540.864 220.811 579.906 242.646 584.055 243.594C588.203 244.564 598.452 249.995 603.648 237.572C608.845 225.16 601.407 219.607 597.191 217.042Z" fill="#00BC90"/>
<path d="M174.15 395.96C174.15 268.105 278.162 164.071 406.039 164.071C419.276 164.071 432.179 165.376 444.792 167.528L459.467 158.484L464.307 142.425C447.736 139.08 423.603 135.489 406.039 135.489C262.405 135.489 145.568 252.348 145.568 395.96C145.568 411.071 146.338 425.233 148.044 438.671C155.192 495.11 226.987 592.989 283.984 593C222.27 548.861 174.15 479.052 174.15 395.96Z" fill="#A8E2CF"/>
</svg>
